<?xml version="1.0" encoding="UTF-8"?>
<svg version="1.1" xmlns="http://www.w3.org/2000/svg" width="1299" height="1299">
<path d="M0 0 C1.34226469 0.00192643 2.68452951 0.00376665 4.02679443 0.00552368 C25.51276334 0.04632499 46.78693389 0.71456433 68.125 3.3125 C68.84979553 3.39971313 69.57459106 3.48692627 70.3213501 3.57678223 C134.87874696 11.41269027 197.48128643 29.09021284 256.125 57.3125 C257.23875 57.84746094 258.3525 58.38242188 259.5 58.93359375 C299.89512222 78.45489723 338.69696971 102.4321144 373.125 131.3125 C374.97831423 132.81355309 376.83249732 134.313534 378.6875 135.8125 C383.08965795 139.41198527 387.34635424 143.14007778 391.54296875 146.9765625 C393.65644002 148.88859854 395.79071393 150.76708579 397.94140625 152.63671875 C401.9964714 156.17761472 405.95204077 159.81373328 409.875 163.5 C410.56456787 164.14783447 411.25413574 164.79566895 411.96459961 165.46313477 C420.01702346 173.05893465 428.04728885 180.69278836 435.2265625 189.1328125 C437.24466071 191.44988822 439.32790606 193.69411397 441.42553711 195.93896484 C446.39063415 201.25590703 451.17641039 206.6499117 455.73046875 212.328125 C457.50740685 214.54277542 459.29995802 216.73742381 461.11328125 218.921875 C517.17408052 286.66697889 556.95132491 368.86905632 591.125 544.3125 C591.22216309 545.43406494 591.31932617 546.55562988 591.41943359 547.71118164 C592.45722769 561.61706364 592.3708206 575.56276074 592.375 589.5 C592.37544186 590.175611 592.37588371 590.851222 592.37633896 591.54730606 C592.38399682 613.91946895 591.85475682 636.08823978 589.125 658.3125 C589.04014343 659.01091003 588.95528687 659.70932007 588.86785889 660.42889404 C578.65586761 743.59722883 551.37954379 823.49637389 508.375 895.4375 C507.77341064 896.44393555 507.17182129 897.45037109 506.55200195 898.48730469 C495.27245129 917.16477303 482.68349455 935.21597447 469.125 952.3125 C468.44050781 953.17875 467.75601562 954.045 467.05078125 954.9375 C465.08764648 957.40588164 463.1093956 959.86118779 461.125 962.3125 C460.40570312 963.20710937 459.68640625 964.10171875 458.9453125 965.0234375 C454.59407604 970.39849431 450.12717085 975.62621733 445.4609375 980.73046875 C443.54890146 982.84394002 441.67041421 984.97821393 439.80078125 987.12890625 C436.25988528 991.1839714 432.62376672 995.13954077 428.9375 999.0625 C428.28966553 999.75206787 427.64183105 1000.44163574 426.97436523 1001.15209961 C419.37856535 1009.20452346 411.74471164 1017.23478885 403.3046875 1024.4140625 C400.98761178 1026.43216071 398.74338603 1028.51540606 396.49853516 1030.61303711 C391.18159297 1035.57813415 385.7875883 1040.36391039 380.109375 1044.91796875 C377.89472458 1046.69490685 375.70007619 1048.48745802 373.515625 1050.30078125 C339.09011281 1078.78668042 300.35968375 1102.83088631 260.19042969 1122.30419922 C257.99619042 1123.37538222 255.81491326 1124.47072689 253.6328125 1125.56640625 C197.94129835 1153.18705616 136.28298125 1169.63694664 74.8125 1177.5625 C73.64750977 1177.71388428 72.48251953 1177.86526855 71.28222656 1178.02124023 C47.95510085 1180.83302038 24.60422679 1181.69248923 1.125 1181.625 C-0.21636951 1181.6230733 -1.55773914 1181.6212331 -2.89910889 1181.61947632 C-24.02233699 1181.5793376 -44.90362242 1180.90394167 -65.875 1178.3125 C-66.58092285 1178.22764343 -67.2868457 1178.14278687 -68.01416016 1178.05535889 C-90.5382269 1175.34555007 -112.7639332 1171.38020247 -134.875 1166.3125 C-135.52666138 1166.16317017 -136.17832275 1166.01384033 -136.84973145 1165.85998535 C-182.26810053 1155.37443609 -226.37355245 1138.72324607 -267.78466797 1117.38867188 C-269.2765578 1116.62059778 -270.77061878 1115.85673484 -272.26611328 1115.09570312 C-307.0393803 1097.38617024 -340.09886233 1075.67926624 -370.13525391 1050.75244141 C-372.57511101 1048.7330368 -375.03919564 1046.74379039 -377.5 1044.75 C-395.26318807 1030.17507645 -395.26318807 1030.17507645 -403.11328125 1022.078125 C-404.82128737 1020.36633172 -406.59049613 1018.80951712 -408.4375 1017.25 C-417.22341334 1009.6843524 -425.60501167 1001.24765969 -433.08203125 992.38671875 C-435.0572271 990.10168826 -437.10680094 987.89901629 -439.16894531 985.69262695 C-444.13689888 980.37409359 -448.92447837 974.97749724 -453.48046875 969.296875 C-455.25740685 967.08222458 -457.04995802 964.88757619 -458.86328125 962.703125 C-492.75146788 921.75189431 -520.65660374 874.98348753 -541.875 826.3125 C-542.33326172 825.26368652 -542.79152344 824.21487305 -543.26367188 823.13427734 C-568.67870478 764.34624201 -583.59816554 701.05903388 -588.875 637.3125 C-589.01856934 635.64320435 -589.01856934 635.64320435 -589.16503906 633.94018555 C-590.20455675 620.02499308 -590.11942091 606.07166383 -590.125 592.125 C-590.12558914 591.45012543 -590.12617828 590.77525085 -590.12678528 590.07992554 C-590.14055412 567.69576752 -589.4703645 545.55807801 -586.875 523.3125 C-586.74109863 522.0961084 -586.60719727 520.8797168 -586.46923828 519.62646484 C-579.61393047 458.64330844 -561.98425424 398.26447854 -535.99755859 342.71777344 C-534.83499701 340.22678676 -533.69275959 337.72704398 -532.55078125 335.2265625 C-526.83444283 322.83573618 -520.39059909 310.9559708 -513.53076172 299.16357422 C-511.92522526 296.39898343 -510.33848651 293.6242969 -508.75390625 290.84765625 C-487.74493178 254.33723402 -461.91338918 220.65950063 -433.27246094 189.82324219 C-431.83268085 188.26675037 -430.40362839 186.70096439 -428.9765625 185.1328125 C-420.10140681 175.40202627 -411.07441134 165.7065532 -401.01953125 157.17578125 C-398.71319329 155.17191384 -396.4827611 153.09996281 -394.25073242 151.01416016 C-388.9332604 146.04811036 -383.53839123 141.26173357 -377.859375 136.70703125 C-375.64472458 134.93009315 -373.45007619 133.13754198 -371.265625 131.32421875 C-336.84011281 102.83831958 -298.10968375 78.79411369 -257.94042969 59.32080078 C-255.74619042 58.24961778 -253.56491326 57.15427311 -251.3828125 56.05859375 C-195.6782778 28.4314862 -133.99026083 11.96021833 -72.5 4.0625 C-70.73994629 3.83542358 -70.73994629 3.83542358 -68.94433594 3.60375977 C-46.00309276 0.84600907 -23.09299661 -0.06624966 0 0 Z " fill="#3DB1C8" transform="translate(648.875,58.6875)"/>
<path d="M0 0 C71.58505224 0 71.58505224 0 101 3 C102.08069763 3.10891571 102.08069763 3.10891571 103.18322754 3.22003174 C122.4048756 5.17950948 141.20088923 8.54692573 160 13 C161.27858887 13.30236572 161.27858887 13.30236572 162.58300781 13.61083984 C167.07105853 14.68349713 171.54105198 15.81127066 176 17 C176.78689209 17.20367187 177.57378418 17.40734375 178.38452148 17.6171875 C198.16262672 22.83893905 217.66136718 29.93686095 236 39 C236.74137207 39.36448242 237.48274414 39.72896484 238.24658203 40.10449219 C251.73713529 46.80982092 264.47011073 54.580079 275.8515625 64.50390625 C278.33491869 66.23322519 279.97594847 66.86430538 283 67 C284.81524791 65.94729669 284.81524791 65.94729669 286.375 64.1875 C306.67494346 45.06601768 335.98291344 32.80289806 362 24 C362.73299316 23.74798828 363.46598633 23.49597656 364.22119141 23.23632812 C393.98583089 13.08404799 424.86061318 7.15364456 456.03076172 3.47021484 C458.58305076 3.16785855 461.13429 2.8564285 463.68408203 2.53369141 C496.441587 -1.50478548 528.85870486 0 562 0 C562 167.31 562 334.62 562 507 C544.18 507.33 526.36 507.66 508 508 C459.06089956 510.49144511 411.04056766 516.91280452 365.1875 534.875 C364.22247559 535.24915039 363.25745117 535.62330078 362.26318359 536.00878906 C355.99624419 538.53240295 350.05170385 541.49102473 344.1027832 544.67626953 C343.32063698 545.09280289 342.53849075 545.50933624 341.73264313 545.93849182 C339.82072224 546.95704505 337.91021499 547.97825108 336 549 C365.46148502 549.11421837 394.92295953 549.20262838 424.38461969 549.25532665 C427.867823 549.26157971 431.35102587 549.26805137 434.83422852 549.2746582 C435.52763172 549.27596976 436.22103493 549.27728131 436.93545035 549.2786326 C448.14292663 549.30035175 459.35027384 549.33975383 470.55767372 549.38576398 C482.06917181 549.43262619 493.58057939 549.45994202 505.09217101 549.47044247 C511.55319573 549.47694924 518.01392833 549.49219529 524.47485924 549.52865028 C530.56270234 549.56272017 536.65013443 549.57303058 542.73806381 549.56553841 C544.96601791 549.56690802 547.1939865 549.57677431 549.42185783 549.59602737 C569.9618399 549.83329876 569.9618399 549.83329876 587.50390625 539.9453125 C592.9714386 532.83609289 596.12605347 524.96685932 596.12190533 516.07384586 C596.12347229 515.00530576 596.12347229 515.00530576 596.1250709 513.91517898 C596.12739165 511.50984061 596.12256136 509.10456814 596.11784363 506.69923401 C596.11811372 504.96453128 596.11883779 503.22982857 596.11997873 501.49512619 C596.12150449 497.71389682 596.11985533 493.93268624 596.11583138 490.15145874 C596.1093184 483.99960547 596.10963899 477.84776352 596.11090088 471.69590759 C596.11202219 463.92219327 596.11137513 456.1484825 596.10870007 448.37476855 C596.10357834 433.09365897 596.11191834 417.81258242 596.12532043 402.53147888 C596.12736717 400.1268066 596.1294095 397.72213432 596.13144749 395.31746203 C596.13560377 390.44833942 596.13981898 385.57921687 596.14405501 380.71009433 C596.15486211 368.18506692 596.16466446 355.66003901 596.1730957 343.13500977 C596.17394695 341.87781456 596.1747982 340.62061936 596.17567525 339.32532733 C596.18888822 318.9640533 596.18388207 298.60281845 596.17302414 278.24154485 C596.16239172 257.34064257 596.17458509 236.43983789 596.20710641 215.53895801 C596.22638219 202.64610415 596.22739358 189.75351097 596.20495013 176.86066108 C596.1911977 168.02031033 596.19935396 159.18014955 596.22467472 150.33982504 C596.23861172 145.24055578 596.24285122 140.14176635 596.22084999 135.0425148 C596.20089215 130.36937423 596.20877705 125.69711864 596.23832611 121.02403652 C596.24414854 119.33819402 596.23995023 117.65227903 596.22442486 115.96649797 C596.13832767 105.90629037 596.95315234 97.50109586 603 89 C608.39824606 83.75340332 614.06508714 80.73550537 621.6875 80.5625 C629.10819919 80.71747775 634.59480936 82.92332497 640.10546875 87.90234375 C645.67358172 93.88375995 647.24895789 99.17341489 647.25447559 107.36779785 C647.25928531 108.45329427 647.25928531 108.45329427 647.26419219 109.56071991 C647.27249596 111.98652435 647.26656658 114.41208213 647.26069641 116.83789062 C647.26371695 118.59438267 647.26760594 120.3508734 647.27228898 122.10736179 C647.28259088 126.93527174 647.28038154 131.7631076 647.27610838 136.59102368 C647.27364503 141.7977868 647.28265066 147.0045319 647.29014587 152.21128845 C647.3029074 162.41407043 647.30468462 172.6168261 647.30234561 182.81961471 C647.30056331 191.11502648 647.30231021 199.41043025 647.30657005 207.70584106 C647.30716524 208.88606525 647.30776043 210.06628944 647.30837366 211.282278 C647.30958541 213.67990756 647.31079954 216.07753712 647.31201603 218.47516668 C647.32289792 240.97209579 647.32072646 263.46900992 647.31463119 285.96593988 C647.30946583 306.53583989 647.32070625 327.10569249 647.33972941 347.67558312 C647.35911566 368.80029698 647.36736214 389.92498842 647.36360615 411.04971123 C647.36169475 422.90799392 647.36417548 434.76623629 647.37832069 446.62451172 C647.39024575 456.72388279 647.39162702 466.82318876 647.37953053 476.92256075 C647.37364874 482.07260682 647.37252293 487.22253386 647.38453293 492.37257195 C647.39541545 497.09418685 647.3922602 501.81558372 647.37827124 506.53718853 C647.37563075 508.23845822 647.37797034 509.93974513 647.38600711 511.64099789 C647.45115546 526.470183 645.47040518 539.42883497 639 553 C638.58105469 553.90234375 638.16210938 554.8046875 637.73046875 555.734375 C627.47120859 576.19376413 608.84911088 589.51437027 587.64453125 596.9921875 C579.28778006 599.3030576 571.19305509 600.29650243 562.5393877 600.25726891 C561.54210198 600.26077498 560.54481626 600.26428105 559.51730976 600.26789337 C556.19082999 600.27716331 552.864527 600.27229543 549.53804016 600.26742554 C547.12281518 600.27116401 544.70759141 600.27576631 542.29236954 600.28115618 C537.04893085 600.29082774 531.80552602 600.29430447 526.56208038 600.29224396 C518.76449515 600.28918727 510.9669506 600.29753268 503.16937329 600.30799321 C488.43052546 600.32731371 473.69169156 600.3329607 458.95283256 600.33410732 C447.56878952 600.33502716 436.18475194 600.33914777 424.80071068 600.34550858 C421.52128719 600.34730372 418.24186369 600.34908335 414.96244019 600.35085833 C413.73945453 600.35152148 413.73945453 600.35152148 412.49176208 600.35219802 C389.56477943 600.36450276 366.63779867 600.37239951 343.71081257 600.37151146 C342.41477291 600.37146472 342.41477291 600.37146472 341.09255063 600.37141704 C336.71351924 600.37125083 332.33448786 600.37105275 327.95545647 600.37084763 C327.08579872 600.37080774 326.21614098 600.37076785 325.32012996 600.37072675 C323.5614708 600.37064587 321.80281163 600.37056228 320.04415247 600.37047596 C292.6857451 600.36925061 265.32738732 600.38426227 237.96899414 600.41162109 C207.216442 600.44236162 176.46392243 600.45955241 145.71135396 600.45769465 C142.43035869 600.45754539 139.14936342 600.45744798 135.86836815 600.45738602 C135.06053224 600.45736271 134.25269633 600.4573394 133.42038054 600.45731538 C120.437147 600.45725392 107.45395661 600.47000921 94.47073588 600.48725055 C81.41576433 600.50422826 68.36085571 600.50616413 55.30587921 600.4930319 C47.55730879 600.48565711 39.80892993 600.48925653 32.06037992 600.50891658 C26.26434141 600.5223759 20.46847919 600.51476594 14.67245307 600.49917014 C12.33536471 600.49610214 9.99825544 600.49972498 7.66119174 600.51089029 C-8.15389406 600.58141482 -23.14110795 599.93163965 -37.375 592.1875 C-38.36294556 591.67147217 -38.36294556 591.67147217 -39.37084961 591.14501953 C-44.90004579 588.19512121 -50.04973006 584.8471199 -55 581 C-55.58523438 580.57847656 -56.17046875 580.15695312 -56.7734375 579.72265625 C-71.41005442 568.41879013 -81.55717569 548.86653732 -84.52132678 530.82731009 C-84.99980872 527.0015294 -85.1277054 523.34387808 -85.13142776 519.48960114 C-85.1334804 518.76268584 -85.13553303 518.03577054 -85.13764787 517.2868275 C-85.14329293 514.85611808 -85.14186372 512.42546577 -85.14044189 509.99475098 C-85.14302693 508.23240802 -85.14604048 506.47006565 -85.1494453 504.70772409 C-85.15750172 499.86857887 -85.1593041 495.0294485 -85.16004276 490.19029737 C-85.16189559 484.97005647 -85.1694439 479.74982324 -85.17617798 474.52958679 C-85.18975038 463.11873924 -85.19578381 451.70789521 -85.20018864 440.29704094 C-85.2029519 433.17359721 -85.20718931 426.05015484 -85.21169281 418.92671204 C-85.22388215 399.20651078 -85.23418336 379.4863106 -85.2375679 359.76610565 C-85.23778747 358.50444243 -85.23800703 357.2427792 -85.23823325 355.94288376 C-85.23845153 354.67820588 -85.23866981 353.41352801 -85.2388947 352.11052656 C-85.23933817 349.54780547 -85.23978473 346.98508437 -85.24023438 344.42236328 C-85.2404558 343.15116546 -85.24067723 341.87996763 -85.24090537 340.57024866 C-85.24485625 319.95688673 -85.2623206 299.34356009 -85.2855939 278.73021179 C-85.30929155 257.57047277 -85.32176896 236.41075148 -85.32293582 215.25099897 C-85.32385327 203.36891729 -85.32962353 191.48688164 -85.34775543 179.60481262 C-85.36313473 169.49099695 -85.36828958 159.37724155 -85.36001733 149.26341641 C-85.35610365 144.102076 -85.35707556 138.94085704 -85.37107468 133.77953148 C-85.38376988 129.05586038 -85.38265474 124.33240254 -85.37048396 119.60873193 C-85.3685194 117.89886628 -85.37164027 116.18898576 -85.38032833 114.47914106 C-85.39138664 112.15596753 -85.38395701 109.83355124 -85.3719368 107.51039886 C-85.37253389 106.21972677 -85.37313097 104.92905467 -85.37374616 103.5992713 C-84.56815269 95.8411997 -80.62259207 90.22583659 -75 85 C-69.75173774 80.96200511 -64.4802667 80.37916986 -57.96875 80.609375 C-51.17106489 81.50380725 -46.111048 84.55015135 -41 89 C-34.26829651 98.11774293 -34.15592254 107.58309224 -34.27415466 118.38305664 C-34.27098308 120.12553331 -34.2651606 121.86800681 -34.25693566 123.61046696 C-34.24196543 128.37194633 -34.26404686 133.13262878 -34.29235852 137.89402056 C-34.31630609 143.03928984 -34.30535697 148.18449954 -34.29852295 153.32980347 C-34.29121585 162.23818297 -34.30520763 171.14632169 -34.33325005 180.05465698 C-34.37336431 192.94753043 -34.37552906 205.84020096 -34.36759759 218.73312438 C-34.35527907 239.67009879 -34.36599543 260.60698891 -34.39477539 281.54394531 C-34.39734631 283.42210385 -34.39734631 283.42210385 -34.39996917 285.33820498 C-34.40872534 291.68240486 -34.41772096 298.02660439 -34.42678833 304.37080383 C-34.44478587 317.06588509 -34.46054988 329.76096875 -34.47485352 342.45605469 C-34.47626988 343.7066293 -34.47768624 344.95720392 -34.47914552 346.24567473 C-34.50212011 367.10615081 -34.50539262 387.96658947 -34.49545342 408.827075 C-34.49034735 421.68599396 -34.50351179 434.54465183 -34.54036594 447.40352035 C-34.56456245 456.21430141 -34.57125666 465.02498257 -34.56425791 473.83579373 C-34.56087866 478.91687108 -34.56575548 483.9975947 -34.59265327 489.07860947 C-34.61718302 493.73460526 -34.61851511 498.39002381 -34.6018386 503.046049 C-34.59989382 504.72558241 -34.60634761 506.40515227 -34.62229805 508.08461106 C-34.72200928 519.20871833 -33.54855525 529.05784379 -26.8125 538.375 C-18.41320163 546.21434515 -9.69024244 549.31419611 1.60507202 549.24050903 C3.04608872 549.24307231 3.04608872 549.24307231 4.51621687 549.24568737 C7.73142778 549.24897848 10.94642945 549.23798467 14.16162109 549.22705078 C16.46789546 549.22648659 18.77417018 549.22680339 21.08044434 549.22793579 C27.34025142 549.22850998 33.59998197 549.21674488 39.85977125 549.20278788 C46.40208518 549.1902916 52.94440083 549.18911089 59.48672485 549.18673706 C70.46723763 549.18155881 81.44772357 549.16873033 92.42822266 549.15087891 C103.73681498 549.13251324 115.04539967 549.11836009 126.35400391 549.10986328 C127.05138453 549.10933783 127.74876515 549.10881239 128.46727853 549.10827102 C131.96592734 549.10566089 135.46457622 549.10313349 138.96322513 549.10064721 C167.97550168 549.07992298 196.98775046 549.04455571 226 549 C223.28641515 547.54928045 220.57129789 546.10156491 217.85522461 544.65551758 C216.71042759 544.04290447 216.71042759 544.04290447 215.54250336 543.41791534 C210.00656016 540.47471443 204.4344026 537.89501931 198.5625 535.6875 C196.95963542 535.06640625 195.35677083 534.4453125 193.75390625 533.82421875 C192.97080078 533.52636475 192.18769531 533.22851074 191.38085938 532.92163086 C188.94708837 531.9795179 186.54019002 530.98245304 184.12890625 529.984375 C178.64749976 527.78851836 173.06265496 526.13463496 167.375 524.5625 C166.28960938 524.26174561 165.20421875 523.96099121 164.0859375 523.65112305 C152.81968641 520.59088196 141.47526018 518.13200529 130 516 C129.03755371 515.81840332 128.07510742 515.63680664 127.08349609 515.44970703 C85.35139402 507.72671711 42.13466111 507.75240466 0 507 C0 339.69 0 172.38 0 0 Z " fill="#FEFEFE" transform="translate(369,335)"/>
<path d="M0 0 C0 134.31 0 268.62 0 407 C-8.91 407.33 -17.82 407.66 -27 408 C-32.33363512 408.37804998 -37.62288168 408.77970799 -42.9375 409.3125 C-43.59023895 409.37624817 -44.24297791 409.43999634 -44.91549683 409.50567627 C-66.88910362 411.65946788 -88.51843655 414.87875098 -110 420 C-111.65515625 420.38478516 -111.65515625 420.38478516 -113.34375 420.77734375 C-142.90731364 427.67330893 -170.96043692 437.50804276 -197.6015625 452.1875 C-200.38045145 453.66957411 -203.07303296 454.86544885 -206 456 C-206.16016101 406.05333513 -206.28353661 356.10669616 -206.35745731 306.15982508 C-206.36621244 300.26548518 -206.37527267 294.37114579 -206.38452148 288.47680664 C-206.38635766 287.30333121 -206.38819383 286.12985578 -206.39008565 284.92082048 C-206.42055935 265.91064983 -206.47575937 246.90062708 -206.54006957 227.89054423 C-206.60548999 208.38989566 -206.64440296 188.88932465 -206.65861946 169.38857085 C-206.6682327 157.351834 -206.69861375 145.3155152 -206.75541527 133.27890701 C-206.79236737 125.02915194 -206.80361196 116.77961354 -206.79450964 108.52978169 C-206.79001826 103.76722592 -206.79698653 99.00540153 -206.83443832 94.24297523 C-206.86847345 89.88324009 -206.87024477 85.52472887 -206.84629226 81.16493768 C-206.84333154 79.58741 -206.8522395 78.00980632 -206.87418228 76.43242847 C-207.02850639 64.65431702 -207.02850639 64.65431702 -204.48584759 60.56453812 C-202.74701624 58.79334188 -201.04298733 57.39925779 -199 56 C-198.05640625 55.18015625 -197.1128125 54.3603125 -196.140625 53.515625 C-167.04985037 30.71474759 -131.63591728 18.23457185 -96 10 C-95.14148438 9.80067871 -94.28296875 9.60135742 -93.3984375 9.39599609 C-80.77803908 6.55178171 -67.94234828 4.9762068 -55.125 3.3125 C-54.29101685 3.20363464 -53.45703369 3.09476929 -52.59777832 2.98260498 C-34.93829488 0.69660037 -17.94123835 0 0 0 Z " fill="#3DB1C8" transform="translate(881,386)"/>
<path d="M0 0 C26.05334351 0 26.05334351 0 33.4375 0.625 C34.43370361 0.70854736 35.42990723 0.79209473 36.45629883 0.87817383 C94.49358025 6.28553505 156.99717234 19.70704697 202 59 C202.69810783 59.56539623 203.39621566 60.13079247 204.11547828 60.71332192 C206.6543356 63.79397061 206.4972413 65.66557797 206.49219131 69.62981796 C206.49680669 70.2979642 206.50142207 70.96611043 206.50617731 71.65450352 C206.51680391 73.90367263 206.49879051 76.1517068 206.48101807 78.40081787 C206.48276169 80.02531937 206.48626275 81.64981978 206.49137473 83.27431417 C206.50033967 87.74623865 206.48429036 92.2177816 206.46426249 96.68965745 C206.44702366 101.50899146 206.45283165 106.32830314 206.45587158 111.1476593 C206.45797121 119.50013089 206.44539802 127.8524777 206.42292023 136.20491791 C206.39044209 148.28119341 206.3799975 160.35740844 206.37496826 172.43372288 C206.36620903 192.0256737 206.33957642 211.61755798 206.30175781 231.20947266 C206.26505397 250.24364895 206.23673425 269.27780719 206.21972656 288.31201172 C206.21867567 289.48485009 206.21762477 290.65768845 206.21654204 291.86606738 C206.21132197 297.74972473 206.20626712 303.63338221 206.20129442 309.51703978 C206.15981284 358.34473917 206.08934731 407.17236635 206 456 C202.8383416 454.75548563 199.86341657 453.45272452 196.90234375 451.78515625 C182.43672667 443.82055767 167.47405294 437.72268249 152 432 C150.88052979 431.5786377 149.76105957 431.15727539 148.60766602 430.72314453 C139.80252073 427.47575951 130.9070785 424.89656812 121.8125 422.625 C121.05443054 422.43468201 120.29636108 422.24436401 119.51531982 422.04827881 C80.20333024 412.2788614 40.3402606 408.78208694 0 406 C0 272.02 0 138.04 0 0 Z " fill="#3DB1C8" transform="translate(419,386)"/>
</svg>
